<mxfile host="app.diagrams.net" agent="Mozilla/5.0 (Macintosh; Intel Mac OS X 10_15_7) AppleWebKit/537.36 (KHTML, like Gecko) Chrome/131.0.0.0 Safari/537.36" version="24.7.17">
  <diagram name="Page-1" id="Eh_Mw41eKuJ2O2LDKg58">
    <mxGraphModel dx="1242" dy="1954" grid="1" gridSize="10" guides="1" tooltips="1" connect="1" arrows="1" fold="1" page="1" pageScale="1" pageWidth="827" pageHeight="1169" math="0" shadow="0">
      <root>
        <mxCell id="0" />
        <mxCell id="1" parent="0" />
        <mxCell id="vKAjqauAh3gj6h31wUOL-32" value="REAL" style="rounded=1;whiteSpace=wrap;html=1;fillColor=#f5f5f5;strokeColor=#666666;fontColor=#333333;" vertex="1" parent="1">
          <mxGeometry x="160" y="-614" width="730" height="524" as="geometry" />
        </mxCell>
        <mxCell id="k9wu2lNZHmlqQ1E5e7p3-1" value="minikube start" style="rounded=1;whiteSpace=wrap;html=1;fillColor=#dae8fc;strokeColor=#6c8ebf;" parent="1" vertex="1">
          <mxGeometry x="380" y="60" width="120" height="60" as="geometry" />
        </mxCell>
        <mxCell id="k9wu2lNZHmlqQ1E5e7p3-2" value="minikube status" style="rounded=1;whiteSpace=wrap;html=1;fillColor=#dae8fc;strokeColor=#6c8ebf;" parent="1" vertex="1">
          <mxGeometry x="380" y="180" width="120" height="60" as="geometry" />
        </mxCell>
        <mxCell id="k9wu2lNZHmlqQ1E5e7p3-3" value="" style="rounded=1;whiteSpace=wrap;html=1;fillColor=#dae8fc;strokeColor=#6c8ebf;" parent="1" vertex="1">
          <mxGeometry x="380" y="290" width="120" height="60" as="geometry" />
        </mxCell>
        <mxCell id="k9wu2lNZHmlqQ1E5e7p3-4" value="" style="rounded=1;whiteSpace=wrap;html=1;fillColor=#dae8fc;strokeColor=#6c8ebf;" parent="1" vertex="1">
          <mxGeometry x="380" y="400" width="120" height="60" as="geometry" />
        </mxCell>
        <mxCell id="k9wu2lNZHmlqQ1E5e7p3-5" style="edgeStyle=orthogonalEdgeStyle;rounded=0;orthogonalLoop=1;jettySize=auto;html=1;" parent="1" source="k9wu2lNZHmlqQ1E5e7p3-1" edge="1">
          <mxGeometry relative="1" as="geometry">
            <mxPoint x="440" y="180" as="targetPoint" />
          </mxGeometry>
        </mxCell>
        <mxCell id="3" style="edgeStyle=orthogonalEdgeStyle;html=1;entryX=0;entryY=0.5;entryDx=0;entryDy=0;shape=flexArrow;" parent="1" source="2" target="k9wu2lNZHmlqQ1E5e7p3-1" edge="1">
          <mxGeometry relative="1" as="geometry" />
        </mxCell>
        <mxCell id="2" value="environment start" style="rounded=1;whiteSpace=wrap;html=1;fillColor=#d5e8d4;strokeColor=#82b366;" parent="1" vertex="1">
          <mxGeometry x="180" y="60" width="120" height="180" as="geometry" />
        </mxCell>
        <mxCell id="4" style="edgeStyle=orthogonalEdgeStyle;html=1;shape=flexArrow;exitX=1;exitY=0.5;exitDx=0;exitDy=0;" parent="1" source="2" target="k9wu2lNZHmlqQ1E5e7p3-2" edge="1">
          <mxGeometry relative="1" as="geometry">
            <mxPoint x="310" y="160" as="sourcePoint" />
            <mxPoint x="390" y="100" as="targetPoint" />
          </mxGeometry>
        </mxCell>
        <mxCell id="5" value="grafana setup" style="rounded=1;whiteSpace=wrap;html=1;fillColor=#d5e8d4;strokeColor=#82b366;" parent="1" vertex="1">
          <mxGeometry x="180" y="290" width="120" height="180" as="geometry" />
        </mxCell>
        <mxCell id="6" value="curl over the render-image container" style="rounded=1;whiteSpace=wrap;html=1;fillColor=#d5e8d4;strokeColor=#82b366;" parent="1" vertex="1">
          <mxGeometry x="180" y="520" width="120" height="180" as="geometry" />
        </mxCell>
        <mxCell id="7" value="curl command" style="rounded=1;whiteSpace=wrap;html=1;fillColor=#dae8fc;strokeColor=#6c8ebf;" parent="1" vertex="1">
          <mxGeometry x="380" y="520" width="120" height="60" as="geometry" />
        </mxCell>
        <mxCell id="8" value="curl command with dashboards" style="rounded=1;whiteSpace=wrap;html=1;fillColor=#dae8fc;strokeColor=#6c8ebf;" parent="1" vertex="1">
          <mxGeometry x="380" y="600" width="120" height="60" as="geometry" />
        </mxCell>
        <mxCell id="9" value="SYMBOLS" style="rounded=1;whiteSpace=wrap;html=1;fillColor=#dae8fc;strokeColor=#6c8ebf;" parent="1" vertex="1">
          <mxGeometry x="380" y="-40" width="120" height="60" as="geometry" />
        </mxCell>
        <mxCell id="10" value="JOURNEY" style="rounded=1;whiteSpace=wrap;html=1;fillColor=#d5e8d4;strokeColor=#82b366;" parent="1" vertex="1">
          <mxGeometry x="180" y="-40" width="120" height="60" as="geometry" />
        </mxCell>
        <mxCell id="11" value="SEMBLANCE" style="rounded=1;whiteSpace=wrap;html=1;fillColor=#f8cecc;strokeColor=#b85450;" parent="1" vertex="1">
          <mxGeometry x="640" y="-40" width="120" height="60" as="geometry" />
        </mxCell>
        <mxCell id="12" value="FORMULAS" style="rounded=1;whiteSpace=wrap;html=1;fillColor=#fff2cc;strokeColor=#d6b656;" parent="1" vertex="1">
          <mxGeometry x="910" y="-40" width="120" height="60" as="geometry" />
        </mxCell>
        <mxCell id="13" value="ENVIRONMENTS" style="rounded=1;whiteSpace=wrap;html=1;fillColor=#e1d5e7;strokeColor=#9673a6;" parent="1" vertex="1">
          <mxGeometry x="1110" y="-40" width="120" height="60" as="geometry" />
        </mxCell>
        <mxCell id="14" value="MINIKUBE &lt;br&gt;8 GB 4 CORES" style="rounded=1;whiteSpace=wrap;html=1;fillColor=#e1d5e7;strokeColor=#9673a6;" parent="1" vertex="1">
          <mxGeometry x="1110" y="50" width="120" height="60" as="geometry" />
        </mxCell>
        <mxCell id="15" value="ELASTIC SEARCH&amp;nbsp;&lt;br&gt;100 MEGABYTE" style="rounded=1;whiteSpace=wrap;html=1;fillColor=#e1d5e7;strokeColor=#9673a6;" parent="1" vertex="1">
          <mxGeometry x="1110" y="150" width="120" height="60" as="geometry" />
        </mxCell>
        <mxCell id="18" value="" style="edgeStyle=orthogonalEdgeStyle;shape=flexArrow;html=1;" parent="1" source="16" target="17" edge="1">
          <mxGeometry relative="1" as="geometry" />
        </mxCell>
        <mxCell id="16" value="REAL" style="rounded=1;whiteSpace=wrap;html=1;fillColor=#f5f5f5;strokeColor=#666666;fontColor=#333333;" parent="1" vertex="1">
          <mxGeometry x="180" y="-170" width="120" height="60" as="geometry" />
        </mxCell>
        <mxCell id="20" value="" style="edgeStyle=orthogonalEdgeStyle;shape=flexArrow;html=1;" parent="1" source="17" target="19" edge="1">
          <mxGeometry relative="1" as="geometry" />
        </mxCell>
        <mxCell id="17" value="OBJECTIVE&lt;br&gt;AUTOMATE&lt;br&gt;STATUS PAGE" style="whiteSpace=wrap;html=1;fillColor=#f5f5f5;strokeColor=#666666;fontColor=#333333;rounded=1;" parent="1" vertex="1">
          <mxGeometry x="380" y="-170" width="120" height="60" as="geometry" />
        </mxCell>
        <mxCell id="19" value="&lt;pre style=&quot;border-top-width: var(--borderRadiusMedium); border-right-width: var(--borderRadiusMedium); border-left-width: var(--borderRadiusMedium); border-bottom-width: var(--borderRadiusMedium); border-style: solid; border-top-color: var(--colorNeutralStroke1); border-right-color: var(--colorNeutralStroke1); border-left-color: var(--colorNeutralStroke1); border-bottom-color: var(--colorNeutralStroke1); padding: 10px; text-wrap-mode: wrap; overflow-wrap: break-word; color: rgb(36, 36, 36); font-size: 14px; text-align: left; background-color: rgb(255, 255, 255);&quot;&gt;&lt;code style=&quot;color: var(--colorNeutralForeground1); background-color: var(--colorNeutralBackground1); overflow-wrap: break-word;&quot;&gt;í ½í´„ Phase 1: Grafana Setup&lt;/code&gt;&lt;/pre&gt;" style="whiteSpace=wrap;html=1;fillColor=#f5f5f5;strokeColor=#666666;fontColor=#333333;rounded=1;" parent="1" vertex="1">
          <mxGeometry x="580" y="-170" width="120" height="60" as="geometry" />
        </mxCell>
        <mxCell id="23" value="" style="sketch=0;html=1;aspect=fixed;strokeColor=none;shadow=0;align=center;verticalAlign=top;fillColor=#2D9C5E;shape=mxgraph.gcp2.check" parent="1" vertex="1">
          <mxGeometry x="480" y="50" width="37.5" height="30" as="geometry" />
        </mxCell>
        <mxCell id="24" value="" style="aspect=fixed;html=1;points=[];align=center;image;fontSize=12;image=img/lib/azure2/general/Globe_Error.svg;" parent="1" vertex="1">
          <mxGeometry x="487.72" y="510" width="22.06" height="26" as="geometry" />
        </mxCell>
        <mxCell id="vKAjqauAh3gj6h31wUOL-24" value="&lt;pre style=&quot;border-top-width: var(--borderRadiusMedium); border-right-width: var(--borderRadiusMedium); border-left-width: var(--borderRadiusMedium); border-bottom-width: var(--borderRadiusMedium); border-style: solid; border-top-color: var(--colorNeutralStroke1); border-right-color: var(--colorNeutralStroke1); border-left-color: var(--colorNeutralStroke1); border-bottom-color: var(--colorNeutralStroke1); padding: 10px; text-wrap-mode: wrap; overflow-wrap: break-word; color: rgb(36, 36, 36); font-size: 14px; text-align: left; background-color: rgb(255, 255, 255);&quot;&gt;&lt;code style=&quot;color: var(--colorNeutralForeground1); background-color: var(--colorNeutralBackground1); overflow-wrap: break-word;&quot;&gt;í ½í´„ Phase 2: Metrics Integration&lt;/code&gt;&lt;/pre&gt;" style="whiteSpace=wrap;html=1;fillColor=#f5f5f5;strokeColor=#666666;fontColor=#333333;rounded=1;" vertex="1" parent="1">
          <mxGeometry x="580" y="-270" width="120" height="60" as="geometry" />
        </mxCell>
        <mxCell id="vKAjqauAh3gj6h31wUOL-26" value="&lt;pre style=&quot;border-top-width: var(--borderRadiusMedium); border-right-width: var(--borderRadiusMedium); border-left-width: var(--borderRadiusMedium); border-bottom-width: var(--borderRadiusMedium); border-style: solid; border-top-color: var(--colorNeutralStroke1); border-right-color: var(--colorNeutralStroke1); border-left-color: var(--colorNeutralStroke1); border-bottom-color: var(--colorNeutralStroke1); padding: 10px; text-wrap-mode: wrap; overflow-wrap: break-word; color: rgb(36, 36, 36); font-size: 14px; text-align: left; background-color: rgb(255, 255, 255);&quot;&gt;&lt;pre style=&quot;border-top-width: var(--borderRadiusMedium); border-right-width: var(--borderRadiusMedium); border-left-width: var(--borderRadiusMedium); border-bottom-width: var(--borderRadiusMedium); border-style: solid; border-top-color: var(--colorNeutralStroke1); border-right-color: var(--colorNeutralStroke1); border-left-color: var(--colorNeutralStroke1); border-bottom-color: var(--colorNeutralStroke1); padding: 10px; text-wrap-mode: wrap; overflow-wrap: break-word;&quot;&gt;&lt;code style=&quot;color: var(--colorNeutralForeground1); background-color: var(--colorNeutralBackground1); overflow-wrap: break-word;&quot;&gt;Phase 4: Automation Implementation&lt;/code&gt;&lt;/pre&gt;&lt;/pre&gt;" style="whiteSpace=wrap;html=1;fillColor=#f5f5f5;strokeColor=#666666;fontColor=#333333;rounded=1;" vertex="1" parent="1">
          <mxGeometry x="600" y="-530" width="120" height="60" as="geometry" />
        </mxCell>
        <mxCell id="vKAjqauAh3gj6h31wUOL-28" value="&lt;pre style=&quot;border-top-width: var(--borderRadiusMedium); border-right-width: var(--borderRadiusMedium); border-left-width: var(--borderRadiusMedium); border-bottom-width: var(--borderRadiusMedium); border-style: solid; border-top-color: var(--colorNeutralStroke1); border-right-color: var(--colorNeutralStroke1); border-left-color: var(--colorNeutralStroke1); border-bottom-color: var(--colorNeutralStroke1); padding: 10px; text-wrap-mode: wrap; overflow-wrap: break-word; color: rgb(36, 36, 36); font-size: 14px; text-align: left; background-color: rgb(255, 255, 255);&quot;&gt;&lt;pre style=&quot;border-top-width: var(--borderRadiusMedium); border-right-width: var(--borderRadiusMedium); border-left-width: var(--borderRadiusMedium); border-bottom-width: var(--borderRadiusMedium); border-style: solid; border-top-color: var(--colorNeutralStroke1); border-right-color: var(--colorNeutralStroke1); border-left-color: var(--colorNeutralStroke1); border-bottom-color: var(--colorNeutralStroke1); padding: 10px; text-wrap-mode: wrap; overflow-wrap: break-word;&quot;&gt;&lt;code style=&quot;color: var(--colorNeutralForeground1); background-color: var(--colorNeutralBackground1); overflow-wrap: break-word;&quot;&gt;Phase 3: Dashboard Development&lt;/code&gt;&lt;/pre&gt;&lt;/pre&gt;" style="whiteSpace=wrap;html=1;fillColor=#f5f5f5;strokeColor=#666666;fontColor=#333333;rounded=1;" vertex="1" parent="1">
          <mxGeometry x="590" y="-390" width="120" height="60" as="geometry" />
        </mxCell>
        <mxCell id="vKAjqauAh3gj6h31wUOL-30" value="FORMULAS" style="rounded=1;whiteSpace=wrap;html=1;fillColor=#fff2cc;strokeColor=#d6b656;" vertex="1" parent="1">
          <mxGeometry x="910" y="-40" width="120" height="60" as="geometry" />
        </mxCell>
        <mxCell id="vKAjqauAh3gj6h31wUOL-31" value="&lt;span style=&quot;color: rgb(51, 51, 51);&quot;&gt;gpt &amp;gt; mermaid &amp;gt; draw.io&lt;/span&gt;" style="rounded=1;whiteSpace=wrap;html=1;fillColor=#fff2cc;strokeColor=#d6b656;" vertex="1" parent="1">
          <mxGeometry x="707" y="-600" width="120" height="60" as="geometry" />
        </mxCell>
      </root>
    </mxGraphModel>
  </diagram>
</mxfile>
